<svg width="97" height="55" viewBox="0 0 97 55" fill="none" xmlns="http://www.w3.org/2000/svg">
<path d="M69.054 29.2876C67.7685 29.2876 66.6179 28.9574 65.6023 28.2969C64.5866 27.6364 63.7841 26.6776 63.1946 25.4205C62.6051 24.1634 62.3104 22.6364 62.3104 20.8395C62.3104 19.0213 62.6087 17.4872 63.2053 16.2372C63.8089 14.9801 64.6222 14.032 65.6449 13.3928C66.6676 12.7464 67.8075 12.4233 69.0646 12.4233C70.0234 12.4233 70.8118 12.5866 71.4297 12.9134C72.0476 13.233 72.5376 13.62 72.8999 14.0746C73.2621 14.522 73.5426 14.9446 73.7415 15.3423H73.9013V7.18182H77.7685V29H73.9759V26.4219H73.7415C73.5426 26.8196 73.255 27.2422 72.8786 27.6896C72.5021 28.13 72.005 28.5064 71.3871 28.8189C70.7692 29.1314 69.9915 29.2876 69.054 29.2876ZM70.13 26.1236C70.9467 26.1236 71.6428 25.9034 72.218 25.4631C72.7933 25.0156 73.2301 24.3942 73.5284 23.5987C73.8267 22.8033 73.9759 21.8764 73.9759 20.8182C73.9759 19.7599 73.8267 18.8402 73.5284 18.0589C73.2372 17.2777 72.804 16.6705 72.2287 16.2372C71.6605 15.804 70.9609 15.5874 70.13 15.5874C69.2706 15.5874 68.5533 15.8111 67.978 16.2585C67.4027 16.706 66.9695 17.3239 66.6783 18.1122C66.3871 18.9006 66.2415 19.8026 66.2415 20.8182C66.2415 21.8409 66.3871 22.7536 66.6783 23.5561C66.9766 24.3516 67.4134 24.9801 67.9886 25.4418C68.571 25.8963 69.2848 26.1236 70.13 26.1236ZM94.8113 16.9616L91.2956 17.3452C91.1962 16.9901 91.0222 16.6562 90.7736 16.3438C90.5321 16.0312 90.2054 15.7791 89.7935 15.5874C89.3816 15.3956 88.8773 15.2997 88.2807 15.2997C87.4782 15.2997 86.8034 15.4737 86.2566 15.8217C85.7168 16.1697 85.4505 16.6207 85.4576 17.1747C85.4505 17.6506 85.6245 18.0376 85.9796 18.3359C86.3418 18.6342 86.9384 18.8793 87.7694 19.071L90.5605 19.6676C92.1088 20.0014 93.2594 20.5305 94.0123 21.255C94.7722 21.9794 95.1557 22.9276 95.1628 24.0994C95.1557 25.1293 94.8539 26.0384 94.2573 26.8267C93.6678 27.608 92.8475 28.2187 91.7963 28.6591C90.7452 29.0994 89.5378 29.3196 88.1742 29.3196C86.1713 29.3196 84.5591 28.9006 83.3375 28.0625C82.1159 27.2173 81.388 26.0419 81.1536 24.5362L84.9142 24.174C85.0847 24.9126 85.4469 25.4702 86.0009 25.8466C86.5549 26.223 87.2757 26.4112 88.1635 26.4112C89.0797 26.4112 89.8148 26.223 90.3688 25.8466C90.9299 25.4702 91.2104 25.005 91.2104 24.451C91.2104 23.9822 91.0293 23.5952 90.6671 23.2898C90.312 22.9844 89.758 22.75 89.0051 22.5866L86.214 22.0007C84.6444 21.674 83.4831 21.1236 82.7303 20.3494C81.9775 19.5682 81.6046 18.581 81.6117 17.3878C81.6046 16.3793 81.878 15.5057 82.432 14.767C82.9931 14.0213 83.7708 13.446 84.7651 13.0412C85.7665 12.6293 86.9206 12.4233 88.2275 12.4233C90.1451 12.4233 91.6543 12.8317 92.7551 13.6484C93.8631 14.4652 94.5485 15.5696 94.8113 16.9616Z" fill="white"/>
<path opacity="0.5" d="M52.0157 3.35129L39.286 50.8829C39.2212 51.0986 38.9623 51.1634 38.8113 51.0123L30.2888 42.4899L36.6753 18.6701C36.74 18.4544 36.5458 18.2602 36.3301 18.3249L12.5103 24.7114L4.03104 16.2321C3.88001 16.081 3.94474 15.8221 4.1605 15.7574L51.6705 3.00608C51.8863 2.96292 52.0804 3.15711 52.0157 3.35129Z" fill="#00B37E"/>
<path opacity="0.5" d="M30.2885 42.49L27.009 54.7882C26.9442 55.004 26.6853 55.0687 26.5343 54.9177L0.0823113 28.4873C-0.0687196 28.3362 -0.00399244 28.0773 0.211766 28.0126L12.51 24.7115L30.2885 42.49Z" fill="#00B37E"/>
<path d="M36.6752 18.6699L30.2887 42.4897L12.5103 24.7112L36.33 18.3247C36.5457 18.26 36.7399 18.4542 36.6752 18.6699Z" fill="#00B37E"/>
<path d="M67.622 48.6314C67.622 48.4246 67.576 48.2334 67.4839 48.0576C67.3969 47.8767 67.2153 47.7139 66.939 47.5691C66.6678 47.4192 66.2585 47.29 65.711 47.1814C65.2505 47.0832 64.8335 46.9669 64.46 46.8325C64.0916 46.6981 63.777 46.5353 63.516 46.344C63.2602 46.1527 63.0632 45.9279 62.9251 45.6694C62.7869 45.411 62.7179 45.1086 62.7179 44.7622C62.7179 44.4314 62.7895 44.1187 62.9328 43.824C63.0811 43.5294 63.2884 43.2683 63.5544 43.0409C63.8256 42.8134 64.1505 42.6351 64.5291 42.5059C64.9077 42.3766 65.3298 42.312 65.7954 42.312C66.4606 42.312 67.0285 42.4309 67.4992 42.6687C67.97 42.9065 68.3307 43.2244 68.5814 43.6224C68.8321 44.0153 68.9574 44.4521 68.9574 44.9328H67.5376C67.5376 44.7002 67.4685 44.4753 67.3304 44.2582C67.1974 44.0359 67.0004 43.8524 66.7394 43.7077C66.4836 43.563 66.1689 43.4906 65.7954 43.4906C65.4015 43.4906 65.0817 43.5526 64.8361 43.6767C64.5956 43.7956 64.4191 43.9481 64.3065 44.1342C64.1991 44.3203 64.1454 44.5167 64.1454 44.7235C64.1454 44.8785 64.171 45.0181 64.2221 45.1422C64.2784 45.2611 64.3756 45.3722 64.5138 45.4756C64.6519 45.5738 64.8463 45.6668 65.097 45.7547C65.3477 45.8426 65.6675 45.9305 66.0564 46.0183C66.7369 46.1734 67.2971 46.3595 67.7372 46.5766C68.1772 46.7937 68.5046 47.0599 68.7195 47.3753C68.9344 47.6906 69.0419 48.0731 69.0419 48.5228C69.0419 48.8898 68.9651 49.2258 68.8116 49.5308C68.6632 49.8358 68.4458 50.0994 68.1593 50.3217C67.8779 50.5388 67.5402 50.7094 67.1462 50.8335C66.7573 50.9524 66.3199 51.0118 65.8338 51.0118C65.1022 51.0118 64.4831 50.88 63.9765 50.6164C63.47 50.3527 63.0863 50.0116 62.8253 49.5929C62.5644 49.1742 62.4339 48.7322 62.4339 48.267H63.8614C63.8819 48.6598 63.9944 48.9726 64.1991 49.2052C64.4038 49.4326 64.6545 49.5954 64.9512 49.6937C65.248 49.7867 65.5422 49.8332 65.8338 49.8332C66.2227 49.8332 66.5476 49.7815 66.8085 49.6782C67.0746 49.5748 67.2767 49.4326 67.4148 49.2517C67.553 49.0708 67.622 48.864 67.622 48.6314Z" fill="white"/>
<path d="M72.3267 38.9468V50.8567H70.9068V38.9468H72.3267ZM71.989 46.344L71.398 46.3207C71.4031 45.747 71.4876 45.2171 71.6513 44.7312C71.815 44.2401 72.0453 43.8137 72.342 43.4518C72.6388 43.09 72.9918 42.8108 73.4011 42.6144C73.8156 42.4128 74.2735 42.312 74.7749 42.312C75.1842 42.312 75.5526 42.3689 75.8801 42.4826C76.2075 42.5911 76.4864 42.7669 76.7166 43.0099C76.952 43.2528 77.1311 43.5681 77.2539 43.9558C77.3767 44.3383 77.4381 44.8062 77.4381 45.3593V50.8567H76.0105V45.3438C76.0105 44.9044 75.9466 44.5529 75.8187 44.2892C75.6908 44.0204 75.504 43.8266 75.2584 43.7077C75.0128 43.5836 74.711 43.5216 74.3528 43.5216C73.9998 43.5216 73.6774 43.5966 73.3858 43.7465C73.0993 43.8964 72.8511 44.1031 72.6413 44.3668C72.4367 44.6304 72.2755 44.9328 72.1578 45.274C72.0453 45.61 71.989 45.9667 71.989 46.344Z" fill="white"/>
<path d="M79.1879 46.755V46.5766C79.1879 45.9718 79.2749 45.411 79.4488 44.894C79.6228 44.3719 79.8735 43.9196 80.201 43.5371C80.5284 43.1494 80.925 42.8496 81.3906 42.6377C81.8562 42.4206 82.378 42.312 82.9562 42.312C83.5395 42.312 84.0639 42.4206 84.5295 42.6377C85.0002 42.8496 85.3993 43.1494 85.7268 43.5371C86.0594 43.9196 86.3126 44.3719 86.4866 44.894C86.6606 45.411 86.7475 45.9718 86.7475 46.5766V46.755C86.7475 47.3598 86.6606 47.9206 86.4866 48.4375C86.3126 48.9545 86.0594 49.4068 85.7268 49.7945C85.3993 50.177 85.0028 50.4768 84.5372 50.6939C84.0767 50.9058 83.5548 51.0118 82.9716 51.0118C82.3883 51.0118 81.8638 50.9058 81.3982 50.6939C80.9326 50.4768 80.5335 50.177 80.201 49.7945C79.8735 49.4068 79.6228 48.9545 79.4488 48.4375C79.2749 47.9206 79.1879 47.3598 79.1879 46.755ZM80.6077 46.5766V46.755C80.6077 47.1737 80.6563 47.5691 80.7535 47.9413C80.8508 48.3083 80.9966 48.634 81.191 48.9183C81.3906 49.2026 81.6387 49.4274 81.9355 49.5929C82.2322 49.7531 82.5776 49.8332 82.9716 49.8332C83.3604 49.8332 83.7007 49.7531 83.9923 49.5929C84.2891 49.4274 84.5346 49.2026 84.7291 48.9183C84.9235 48.634 85.0693 48.3083 85.1665 47.9413C85.2689 47.5691 85.32 47.1737 85.32 46.755V46.5766C85.32 46.1631 85.2689 45.7728 85.1665 45.4058C85.0693 45.0336 84.9209 44.7054 84.7214 44.4211C84.527 44.1316 84.2814 43.9041 83.9846 43.7387C83.693 43.5733 83.3502 43.4906 82.9562 43.4906C82.5673 43.4906 82.2245 43.5733 81.9278 43.7387C81.6361 43.9041 81.3906 44.1316 81.191 44.4211C80.9966 44.7054 80.8508 45.0336 80.7535 45.4058C80.6563 45.7728 80.6077 46.1631 80.6077 46.5766Z" fill="white"/>
<path d="M89.9479 44.0799V54.0823H88.5204V42.4671H89.8251L89.9479 44.0799ZM95.5428 46.5921V46.755C95.5428 47.3649 95.4712 47.931 95.3279 48.453C95.1847 48.97 94.9749 49.4197 94.6986 49.8022C94.4274 50.1847 94.0923 50.482 93.6932 50.6939C93.2941 50.9058 92.8362 51.0118 92.3194 51.0118C91.7924 51.0118 91.3268 50.9239 90.9226 50.7482C90.5184 50.5724 90.1756 50.3166 89.8942 49.9806C89.6128 49.6446 89.3877 49.2414 89.2188 48.771C89.0551 48.3006 88.9425 47.7707 88.8811 47.1814V46.313C88.9425 45.6927 89.0576 45.137 89.2265 44.6459C89.3953 44.1548 89.6179 43.7361 89.8942 43.3898C90.1756 43.0383 90.5158 42.7721 90.9149 42.5911C91.314 42.4051 91.7745 42.312 92.2964 42.312C92.8183 42.312 93.2813 42.4154 93.6855 42.6222C94.0897 42.8238 94.43 43.1132 94.7063 43.4906C94.9826 43.8679 95.1898 44.3203 95.3279 44.8475C95.4712 45.3696 95.5428 45.9511 95.5428 46.5921ZM94.1153 46.755V46.5921C94.1153 46.1734 94.0718 45.7806 93.9848 45.4135C93.8979 45.0414 93.7623 44.7157 93.5781 44.4366C93.399 44.1523 93.1687 43.93 92.8873 43.7697C92.6059 43.6043 92.2708 43.5216 91.8819 43.5216C91.5238 43.5216 91.2117 43.5836 90.9456 43.7077C90.6847 43.8318 90.4621 43.9998 90.2779 44.2117C90.0937 44.4185 89.9428 44.6563 89.8251 44.9251C89.7125 45.1887 89.6281 45.4627 89.5718 45.747V47.7552C89.6742 48.117 89.8174 48.4582 90.0016 48.7787C90.1858 49.094 90.4314 49.3499 90.7384 49.5463C91.0454 49.7376 91.4317 49.8332 91.8973 49.8332C92.281 49.8332 92.6111 49.7531 92.8873 49.5929C93.1687 49.4274 93.399 49.2026 93.5781 48.9183C93.7623 48.634 93.8979 48.3083 93.9848 47.9413C94.0718 47.5691 94.1153 47.1737 94.1153 46.755Z" fill="white"/>
</svg>
